<?xml version="1.0" encoding="utf-8"?>
<!DOCTYPE svg PUBLIC "-//W3C//DTD SVG 20010904//EN" "http://www.w3.org/TR/2001/REC-SVG-20010904/DTD/svg10.dtd">
<svg version="1.0" xmlns="http://www.w3.org/2000/svg" width="1410pt" height="770pt" viewBox="0 0 1410 770" preserveAspectRatio="xMidYMid meet">
<g fill="#1D7617FF">
<path d="M 681.50 537.82 C 676.55 537.33 667.10 535.83 660.50 534.50 C 613.52 525.04 574.70 505.18 544.00 474.90 L 536.50 467.50 L 545.29 467.21 L 554.07 466.92 L 562.79 474.35 C 572.46 482.59 589.64 495.00 591.38 495.00 C 592.16 495.00 592.41 491.29 592.19 482.64 L 591.89 470.28 L 599.47 463.49 L 607.06 456.70 L 609.34 458.85 C 611.41 460.80 612.74 461.00 623.31 461.00 L 635.00 461.00 L 635.00 466.95 L 635.00 472.91 L 638.40 473.55 C 645.62 474.90 645.47 475.24 645.78 457.74 C 646.04 442.83 646.15 442.00 648.03 442.00 C 649.61 442.00 650.00 441.32 650.00 438.57 C 650.00 435.56 650.35 435.09 652.75 434.82 C 655.31 434.52 655.52 434.15 655.80 429.25 C 656.06 424.82 656.41 424.00 658.05 424.00 C 659.75 424.00 660.00 424.72 660.00 429.50 C 660.00 434.70 660.14 435.00 662.50 435.00 C 664.69 435.00 665.00 435.43 665.00 438.50 C 665.00 441.57 665.31 442.00 667.50 442.00 L 670.00 442.00 L 670.00 455.00 L 670.00 468.00 L 675.50 468.00 L 681.00 468.00 L 681.00 462.50 L 681.00 457.00 L 692.46 457.00 L 703.91 457.00 L 704.21 449.81 L 704.50 442.61 L 716.00 436.87 C 722.33 433.71 727.83 431.10 728.22 431.07 C 728.62 431.03 729.07 437.41 729.22 445.25 L 729.50 459.50 L 734.00 459.50 L 738.50 459.50 L 738.50 451.00 L 738.50 442.50 L 745.00 442.50 L 751.50 442.50 L 752.00 447.49 L 752.50 452.47 L 756.70 452.16 L 760.91 451.85 L 761.20 458.68 L 761.50 465.50 L 766.50 465.50 L 771.50 465.50 L 771.81 461.25 L 772.11 457.00 L 781.06 457.00 C 789.93 457.00 790.00 456.98 790.00 454.50 C 790.00 452.50 790.50 452.00 792.50 452.00 C 794.33 452.00 795.00 451.47 795.00 450.00 C 795.00 448.15 795.67 448.00 803.93 448.00 C 812.43 448.00 812.88 448.11 813.18 450.25 C 813.41 451.90 814.17 452.50 816.00 452.50 L 818.50 452.50 L 818.77 474.75 C 818.92 486.99 819.39 497.00 819.82 497.00 C 823.17 497.00 860.00 470.12 860.00 467.68 C 860.00 467.45 857.79 466.96 855.09 466.61 C 846.63 465.48 837.15 459.93 828.88 451.24 C 819.87 441.79 784.00 400.56 784.00 399.66 C 784.00 398.97 791.50 391.00 792.15 391.00 C 792.49 391.00 803.43 403.16 816.47 418.03 C 829.52 432.90 841.68 446.26 843.51 447.72 C 848.38 451.60 854.76 453.88 860.93 453.94 C 872.15 454.06 879.91 447.31 889.18 429.40 C 898.29 411.79 904.17 392.21 907.47 368.58 C 908.31 362.58 909.17 357.49 909.38 357.28 C 909.60 357.07 910.76 358.49 911.97 360.45 C 913.18 362.40 914.53 364.00 914.98 364.00 C 915.44 364.00 917.20 362.31 918.90 360.25 L 922.00 356.50 L 921.52 360.50 C 920.03 372.91 917.58 387.20 915.40 396.23 C 904.67 440.71 878.11 476.52 836.80 502.19 C 815.97 515.14 780.92 529.13 757.28 533.93 C 734.03 538.66 704.72 540.16 681.50 537.82ZM 704.00 505.53 L 704.00 485.05 L 707.14 483.43 C 714.41 479.67 731.52 472.99 732.71 473.44 C 733.65 473.80 734.00 476.79 734.00 484.47 L 734.00 495.00 L 744.00 495.00 L 754.00 495.00 L 754.00 487.47 L 754.00 479.94 L 766.75 480.22 L 779.50 480.50 L 779.77 497.35 L 780.05 514.20 L 782.48 513.59 C 783.82 513.26 786.06 512.55 787.46 512.02 L 790.00 511.05 L 790.00 486.02 L 790.00 461.00 L 783.00 461.00 L 776.00 461.00 L 776.00 465.50 L 776.00 470.00 L 766.50 470.00 L 757.00 470.00 L 757.00 463.50 L 757.00 457.00 L 752.50 457.00 L 748.00 457.00 L 748.00 452.00 C 748.00 447.11 747.93 447.00 745.00 447.00 L 742.00 447.00 L 742.00 455.54 L 742.00 464.08 L 733.75 463.79 L 725.50 463.50 L 725.22 450.18 C 725.07 442.85 724.62 437.01 724.22 437.20 C 723.82 437.38 720.01 439.32 715.75 441.49 L 708.00 445.44 L 708.00 460.72 C 708.00 475.33 707.91 476.00 706.00 476.00 C 704.18 476.00 704.00 475.33 704.00 468.50 L 704.00 461.00 L 694.50 461.00 L 685.00 461.00 L 685.00 466.50 L 685.00 472.00 L 675.53 472.00 L 666.06 472.00 L 665.78 459.25 L 665.50 446.50 L 658.00 446.50 L 650.50 446.50 L 650.00 462.00 L 649.50 477.50 L 640.25 477.79 L 631.00 478.08 L 631.00 471.54 L 631.00 465.00 L 623.93 465.00 L 616.86 465.00 L 618.93 467.90 C 620.85 470.60 621.00 472.20 621.00 490.31 L 621.00 509.81 L 625.68 511.41 C 628.25 512.28 630.75 513.00 631.23 513.00 C 631.71 513.00 631.97 510.66 631.80 507.79 C 631.54 503.19 631.21 502.51 629.04 502.00 C 626.76 501.47 627.29 500.81 635.99 493.23 C 645.21 485.19 645.44 485.06 647.45 486.82 C 648.58 487.80 652.76 491.44 656.75 494.90 C 663.57 500.83 665.02 503.41 661.17 502.78 C 659.73 502.54 659.46 503.73 659.21 511.41 C 659.05 516.31 659.27 520.64 659.71 521.04 C 660.14 521.43 662.19 522.06 664.25 522.42 L 668.00 523.09 L 668.00 516.70 C 668.00 511.13 667.72 510.18 665.86 509.35 C 663.87 508.46 664.26 507.90 671.44 501.45 C 681.67 492.25 681.45 492.34 685.62 495.52 C 689.08 498.16 689.14 498.17 689.68 496.10 C 690.00 494.90 691.04 494.00 692.12 494.00 C 693.66 494.00 694.00 494.75 694.00 498.20 C 694.00 501.55 694.63 503.06 697.10 505.60 C 700.09 508.69 700.12 508.83 698.10 509.47 C 696.20 510.07 696.00 510.89 696.00 518.07 L 696.00 526.00 L 700.00 526.00 L 704.00 526.00 L 704.00 505.53ZM 727.75 525.37 L 730.00 524.77 L 730.00 501.38 C 730.00 488.52 729.68 478.00 729.29 478.00 C 728.91 478.00 723.97 479.91 718.32 482.25 L 708.05 486.50 L 707.87 494.00 C 707.77 498.12 707.71 502.40 707.73 503.50 C 707.75 504.60 707.82 510.11 707.88 515.75 L 708.00 526.00 L 716.75 525.99 C 721.56 525.98 726.51 525.70 727.75 525.37ZM 768.18 517.89 L 776.00 515.78 L 776.00 499.89 L 776.00 484.00 L 767.00 484.00 L 758.00 484.00 L 758.00 502.00 C 758.00 515.18 758.32 520.00 759.18 520.00 C 759.83 520.00 763.88 519.05 768.18 517.89Z"/></g>
<g fill="#1D7617FF">
<path d="M 534.30 456.14 C 523.30 452.34 517.75 446.52 509.61 430.26 C 499.33 409.71 491.95 383.02 490.39 360.75 C 489.59 349.42 490.51 349.97 477.38 353.03 C 472.59 354.14 468.32 354.93 467.88 354.78 C 467.14 354.52 480.51 331.94 491.62 314.69 L 496.65 306.89 L 505.48 322.19 C 510.34 330.61 516.70 341.53 519.62 346.45 C 522.54 351.38 524.79 355.54 524.62 355.71 C 524.46 355.88 519.75 354.81 514.15 353.35 C 508.56 351.88 503.68 350.99 503.30 351.37 C 502.24 352.43 504.74 372.52 507.44 384.65 C 512.10 405.57 522.13 429.71 529.58 437.96 C 534.42 443.32 540.25 445.41 548.46 444.76 C 556.11 444.14 561.74 441.21 567.56 434.80 C 569.73 432.41 583.04 416.03 597.14 398.39 C 624.08 364.71 625.83 363.00 633.47 363.00 C 638.16 363.00 640.32 364.17 646.69 370.14 C 649.54 372.81 652.72 375.00 653.75 375.00 C 656.48 375.00 659.12 371.81 675.83 348.40 C 684.11 336.80 692.12 326.50 693.63 325.51 C 697.44 323.01 703.81 322.48 708.16 324.29 C 711.08 325.51 715.24 330.49 730.13 350.58 C 740.23 364.20 749.99 377.05 751.82 379.12 C 755.87 383.73 760.82 385.61 765.03 384.14 C 766.66 383.57 768.00 383.47 768.00 383.93 C 768.00 384.38 769.55 386.44 771.44 388.50 C 773.84 391.12 775.40 392.06 776.58 391.61 C 779.85 390.35 775.82 394.14 769.59 398.17 C 764.71 401.34 762.81 402.00 758.59 402.00 C 752.30 402.00 748.40 400.02 729.53 387.27 L 715.56 377.83 L 710.18 383.91 C 707.10 387.40 703.99 390.00 702.88 390.00 C 701.59 390.00 699.65 387.92 697.06 383.75 C 689.94 372.29 692.14 372.54 677.42 381.56 C 663.21 390.28 659.23 393.83 647.60 408.19 C 639.36 418.37 637.61 419.76 635.37 417.89 C 633.28 416.16 633.66 414.96 638.12 409.08 C 645.46 399.40 648.26 394.18 647.58 391.47 C 646.74 388.11 634.24 374.97 632.51 375.64 C 631.76 375.92 619.99 390.18 606.35 407.33 C 579.00 441.71 572.55 449.01 566.26 452.69 C 557.18 458.02 543.88 459.45 534.30 456.14ZM 736.32 380.75 C 735.22 379.51 729.98 372.43 724.69 365.00 C 707.20 340.45 703.40 335.50 702.00 335.50 C 700.61 335.50 672.71 374.04 673.51 374.84 C 673.74 375.08 677.02 373.44 680.78 371.20 C 692.18 364.43 693.21 364.59 699.39 374.25 C 701.41 377.41 703.40 380.00 703.82 380.00 C 704.24 380.00 706.57 377.98 709.00 375.50 C 711.43 373.02 714.02 371.00 714.75 371.00 C 716.41 371.00 721.49 373.75 730.44 379.50 C 737.66 384.14 739.77 384.59 736.32 380.75Z"/></g>
<g fill="#66A14BFF">
<path d="M 501.45 300.84 C 498.39 294.83 497.99 294.64 494.85 297.65 C 492.12 300.26 492.00 300.29 492.00 298.23 C 492.00 294.45 498.76 269.55 502.56 259.36 C 519.05 215.03 552.60 175.64 595.65 150.05 C 620.95 135.01 655.31 123.65 682.00 121.51 C 686.12 121.18 690.90 120.69 692.62 120.43 L 695.74 119.96 L 693.47 109.48 C 692.23 103.72 691.46 99.00 691.77 99.00 C 693.15 99.00 733.78 123.62 736.32 126.00 C 738.06 127.62 737.05 128.35 714.95 141.40 C 702.20 148.93 691.54 154.87 691.26 154.59 C 690.98 154.31 691.77 149.91 693.01 144.79 C 694.25 139.68 695.31 135.05 695.38 134.50 C 695.62 132.52 674.79 134.85 659.00 138.57 C 621.61 147.38 590.05 164.92 562.21 192.36 C 533.36 220.79 513.95 255.76 506.18 293.35 C 505.06 298.76 503.92 303.42 503.64 303.69 C 503.37 303.96 502.38 302.68 501.45 300.84Z"/></g>
<g fill="#1D7617FF">
<path d="M 394.00 600.50 L 394.00 567.83 L 414.75 568.18 C 433.86 568.50 435.83 568.70 439.66 570.74 C 441.94 571.95 444.74 574.13 445.88 575.57 C 450.18 581.05 449.56 589.80 444.43 595.90 L 441.92 598.88 L 445.06 601.19 C 448.74 603.90 451.23 608.23 450.39 610.44 C 450.06 611.30 450.28 612.00 450.89 612.00 C 452.25 612.00 452.38 617.65 451.04 618.47 C 450.52 618.80 450.29 619.61 450.55 620.28 C 451.43 622.63 447.17 627.74 442.35 630.11 C 437.77 632.37 436.30 632.52 415.75 632.83 L 394.00 633.17 L 394.00 600.50ZM 433.32 619.85 C 436.28 618.29 436.97 617.06 436.98 613.25 C 437.02 606.61 432.39 604.69 417.50 605.20 L 408.50 605.50 L 408.21 613.25 L 407.92 621.00 L 419.52 621.00 C 426.34 621.00 432.03 620.53 433.32 619.85ZM 430.39 592.87 C 433.74 591.34 435.55 586.90 434.00 584.01 C 432.14 580.52 426.98 579.00 417.03 579.00 L 408.00 579.00 L 408.00 586.50 L 408.00 594.00 L 417.95 594.00 C 423.43 594.00 429.02 593.49 430.39 592.87Z"/></g>
<g fill="#66A14BFF">
<path d="M 764.40 368.25 C 759.53 352.34 752.58 339.48 737.58 318.58 C 725.39 301.61 720.68 293.49 717.26 283.53 C 714.82 276.43 714.51 274.11 714.57 263.50 C 714.64 253.45 715.06 250.25 717.19 243.83 C 720.78 233.02 726.15 223.94 733.67 215.96 C 741.50 207.67 748.23 203.06 758.66 198.84 C 767.38 195.32 779.87 193.92 781.79 196.25 C 783.21 197.98 784.04 204.00 782.85 204.00 C 782.32 204.00 782.16 204.45 782.50 205.00 C 782.84 205.55 782.29 206.00 781.27 206.00 C 777.17 206.00 767.04 209.24 759.27 213.05 C 743.86 220.59 732.17 235.96 728.50 253.50 C 726.55 262.80 726.63 266.23 728.98 275.40 C 731.57 285.56 735.31 292.37 748.20 310.48 C 754.08 318.74 760.99 329.21 763.54 333.75 C 766.10 338.29 768.62 341.74 769.15 341.41 C 770.73 340.43 776.00 328.14 776.00 325.42 C 776.00 323.82 776.41 323.13 777.11 323.57 C 777.86 324.03 777.99 323.53 777.50 322.00 C 777.01 320.47 777.14 319.97 777.89 320.43 C 778.56 320.85 779.00 320.33 779.00 319.14 C 779.00 318.05 779.27 316.34 779.59 315.33 C 780.10 313.79 780.01 313.74 779.06 315.00 C 778.19 316.16 778.09 315.58 778.64 312.50 C 779.03 310.30 779.30 307.71 779.24 306.75 C 779.18 305.79 779.55 305.00 780.06 305.00 C 780.58 305.00 781.07 305.79 781.15 306.75 C 781.24 307.71 781.41 308.95 781.54 309.50 C 781.66 310.05 781.82 311.29 781.88 312.25 C 781.95 313.21 782.56 313.89 783.25 313.75 C 784.04 313.59 784.62 314.93 784.82 317.35 C 785.02 319.89 784.77 320.98 784.07 320.54 C 783.42 320.14 783.00 320.88 783.00 322.44 C 783.00 323.85 783.45 325.00 784.00 325.00 C 785.68 325.00 785.11 327.74 783.28 328.45 C 781.80 329.01 781.77 329.24 783.03 330.04 C 783.93 330.61 784.04 330.98 783.31 330.98 C 782.65 330.99 782.29 331.90 782.50 333.00 C 782.71 334.10 782.41 335.00 781.84 335.00 C 781.26 335.00 781.05 335.70 781.38 336.55 C 781.71 337.41 781.58 337.86 781.10 337.56 C 779.79 336.75 778.31 339.09 777.79 342.79 C 777.43 345.40 777.64 345.97 778.81 345.52 C 780.01 345.06 780.06 345.23 779.05 346.44 C 778.37 347.26 778.02 348.51 778.27 349.22 C 778.52 349.92 778.13 351.68 777.40 353.12 C 776.68 354.57 776.36 356.03 776.71 356.37 C 777.05 356.72 776.81 357.00 776.17 357.00 C 775.52 357.00 775.00 357.52 775.00 358.16 C 775.00 359.76 767.16 370.00 765.94 370.00 C 765.39 370.00 764.70 369.21 764.40 368.25Z"/></g>
<g fill="#368BA0FF">
<path d="M 805.32 354.50 C 805.34 352.85 805.05 349.38 804.68 346.80 C 804.12 342.92 804.31 341.93 805.75 341.12 C 806.71 340.58 807.28 340.00 807.01 339.82 C 806.74 339.64 810.00 334.26 814.25 327.85 C 818.50 321.44 822.43 315.14 823.00 313.85 C 824.39 310.64 831.14 298.62 831.89 298.00 C 832.23 297.73 832.58 297.05 832.68 296.50 C 833.11 294.06 836.73 287.07 837.28 287.62 C 837.62 287.95 837.86 287.39 837.81 286.36 C 837.77 285.34 838.69 281.13 839.86 277.02 C 842.51 267.75 842.57 260.53 840.06 250.74 C 836.34 236.17 827.42 223.18 815.81 215.39 C 811.80 212.70 807.92 209.94 807.19 209.25 C 806.46 208.56 805.36 208.00 804.76 208.00 C 804.16 208.00 803.93 207.73 804.26 207.40 C 804.59 207.08 803.96 205.21 802.87 203.27 C 799.24 196.80 804.14 196.39 816.00 202.17 C 819.58 203.91 822.84 205.26 823.25 205.17 C 823.66 205.08 824.00 205.45 824.00 206.00 C 824.00 206.55 824.41 207.00 824.92 207.00 C 827.15 207.00 842.00 221.50 842.00 223.68 C 842.00 224.41 842.43 225.00 842.95 225.00 C 844.57 225.00 850.91 239.13 853.00 247.41 C 855.87 258.75 855.68 270.43 852.45 281.64 C 849.52 291.81 841.48 308.75 833.75 321.04 C 827.07 331.67 808.04 356.14 806.97 355.48 C 806.53 355.21 805.97 355.55 805.73 356.24 C 805.49 356.93 805.31 356.15 805.32 354.50Z"/></g>
<g fill="#1D7617FF">
<path d="M 633.94 632.69 C 625.19 630.22 618.94 624.04 616.42 615.38 C 613.54 605.45 616.27 595.60 623.80 588.80 C 628.91 584.18 633.87 582.53 642.50 582.59 C 654.60 582.67 663.35 588.85 666.58 599.61 C 669.29 608.59 667.78 617.67 662.42 624.70 C 657.04 631.75 643.78 635.47 633.94 632.69ZM 647.81 619.97 C 656.29 614.81 655.86 600.08 647.09 595.55 C 638.72 591.22 629.00 597.72 629.00 607.65 C 629.00 612.10 632.73 618.62 636.29 620.37 C 640.61 622.50 643.85 622.39 647.81 619.97Z"/></g>
<g fill="#368BA0FF">
<path d="M 915.03 351.02 C 912.81 349.65 886.13 305.60 886.97 304.69 C 887.38 304.25 892.15 305.02 897.57 306.39 C 903.00 307.77 907.63 308.70 907.87 308.47 C 909.08 307.25 899.37 265.53 895.93 257.18 C 894.76 254.34 895.47 253.00 898.12 253.00 C 899.22 253.00 899.84 252.55 899.50 252.00 C 899.16 251.45 899.36 251.00 899.94 251.00 C 900.52 251.00 901.00 251.45 901.00 252.00 C 901.00 252.55 901.45 253.00 902.00 253.00 C 902.55 253.00 903.00 252.22 903.00 251.28 C 903.00 249.90 903.33 250.03 904.65 251.91 C 910.41 260.13 916.85 279.25 919.96 297.32 C 920.98 303.28 922.08 308.41 922.41 308.74 C 922.73 309.07 927.38 308.15 932.75 306.71 C 938.11 305.27 942.83 304.43 943.23 304.83 C 943.63 305.23 937.77 315.99 930.20 328.73 C 919.51 346.72 916.13 351.70 915.03 351.02Z"/></g>
<g fill="#1D7617FF">
<path d="M 468.79 632.41 C 459.99 629.71 456.11 621.06 459.87 612.56 C 462.62 606.35 467.46 604.18 480.45 603.33 C 490.77 602.65 491.73 601.92 488.46 597.25 C 485.32 592.76 473.75 592.34 467.39 596.48 C 465.44 597.76 465.13 597.58 463.14 594.04 C 461.96 591.94 461.00 589.56 461.00 588.74 C 461.00 587.90 463.28 586.25 466.25 584.96 C 473.21 581.94 487.65 581.65 493.00 584.42 C 497.44 586.72 501.09 590.04 500.41 591.15 C 500.12 591.62 500.34 592.00 500.89 592.00 C 502.97 592.00 503.99 599.98 503.99 616.25 L 504.00 633.00 L 497.50 633.00 C 491.12 633.00 491.00 632.95 491.00 630.33 L 491.00 627.65 L 488.66 629.85 C 484.22 634.02 477.04 634.95 468.79 632.41Z"/></g>
<g fill="#E49330FF">
<path d="M 841.83 183.14 C 811.43 159.61 780.48 144.12 751.65 138.00 C 746.78 136.97 742.51 135.85 742.17 135.50 C 741.83 135.16 743.32 133.39 745.50 131.56 C 748.97 128.65 749.28 128.04 748.08 126.60 C 747.33 125.69 746.95 124.71 747.25 124.42 C 748.12 123.55 765.67 127.98 778.00 132.19 C 807.88 142.39 841.14 163.59 855.24 181.42 L 859.19 186.42 L 856.04 187.49 C 854.30 188.07 853.19 188.85 853.55 189.22 C 853.92 189.59 853.31 189.82 852.19 189.74 C 851.07 189.65 846.41 186.69 841.83 183.14Z"/></g>
<g fill="#1D7617FF">
<path d="M 945.84 633.06 C 937.99 631.53 933.81 626.69 933.69 618.99 C 933.54 608.78 939.61 604.83 955.52 604.79 L 966.00 604.76 L 966.00 600.81 C 966.00 597.76 965.32 596.17 963.08 593.92 C 960.48 591.33 959.46 591.00 954.04 591.00 C 949.55 591.00 946.66 591.64 943.12 593.44 L 938.31 595.88 L 936.68 592.45 C 935.09 589.12 935.11 588.97 937.29 587.55 C 941.60 584.72 948.30 583.00 954.97 583.00 C 963.98 583.00 969.62 585.86 972.75 592.01 C 974.84 596.11 975.00 597.72 975.00 614.71 L 975.00 633.00 L 971.00 633.00 C 967.40 633.00 967.00 632.75 967.00 630.50 C 967.00 627.59 966.33 627.39 963.89 629.60 C 959.90 633.21 953.21 634.49 945.84 633.06ZM 958.92 625.42 C 963.82 623.45 966.00 620.27 966.00 615.08 L 966.00 611.08 L 957.75 610.79 C 948.48 610.46 944.75 611.80 942.98 616.07 C 941.44 619.76 943.25 623.77 947.24 625.51 C 951.51 627.36 954.11 627.34 958.92 625.42Z"/></g>
<g fill="#1D7617FF">
<path d="M 699.73 632.97 C 689.71 630.45 681.45 623.35 677.87 614.17 C 674.83 606.39 674.81 594.67 677.82 586.96 C 685.11 568.30 710.35 561.05 726.73 572.92 C 731.19 576.15 731.48 578.35 727.89 581.60 C 726.07 583.24 725.87 583.23 723.74 581.28 C 717.19 575.29 707.18 573.58 699.09 577.06 C 692.87 579.73 686.51 587.00 685.31 592.79 C 683.30 602.54 685.21 610.75 691.03 617.38 C 699.21 626.70 711.23 628.06 721.69 620.87 L 726.16 617.80 L 728.58 620.07 C 729.91 621.32 731.00 622.88 731.00 623.54 C 731.00 625.01 724.80 629.37 719.68 631.50 C 714.92 633.48 704.73 634.23 699.73 632.97Z"/></g>
<g fill="#1D7617FF">
<path d="M 866.04 632.87 C 860.60 631.24 856.92 628.07 854.75 623.17 C 853.09 619.42 852.66 615.71 852.23 601.48 C 851.73 584.82 851.78 584.29 853.76 583.77 C 854.88 583.48 856.97 583.46 858.40 583.74 L 861.00 584.23 L 861.01 598.37 C 861.01 614.51 861.82 618.50 865.88 622.39 C 871.41 627.68 880.47 626.42 885.43 619.68 C 887.27 617.17 887.56 615.02 888.00 600.18 L 888.50 583.50 L 892.69 583.20 L 896.87 582.89 L 896.97 607.95 L 897.06 633.00 L 893.03 633.00 C 889.22 633.00 889.00 632.84 889.00 630.00 C 889.00 626.68 887.93 626.18 885.95 628.57 C 882.58 632.62 872.47 634.81 866.04 632.87Z"/></g>
<g fill="#66A14BFF">
<path d="M 758.60 298.40 C 758.26 297.52 759.42 290.99 761.18 283.89 C 764.04 272.31 764.21 270.86 762.81 269.75 C 761.95 269.06 757.12 265.37 752.08 261.55 C 744.26 255.63 742.95 254.22 743.20 252.05 C 743.47 249.72 744.01 249.45 749.50 248.86 C 752.80 248.51 758.93 248.17 763.13 248.11 C 768.35 248.03 771.12 247.56 771.92 246.59 C 772.57 245.82 775.05 240.31 777.45 234.34 C 779.85 228.38 782.39 223.50 783.10 223.50 C 784.56 223.50 785.13 236.38 783.78 239.00 C 783.36 239.82 782.07 243.10 780.92 246.28 C 779.77 249.46 777.86 252.68 776.67 253.44 C 775.47 254.19 771.24 255.12 767.25 255.51 C 763.26 255.89 760.03 256.49 760.07 256.85 C 760.11 257.21 762.81 259.65 766.07 262.28 C 771.40 266.58 772.00 267.44 771.99 270.78 C 771.98 272.83 771.35 276.86 770.58 279.75 C 769.78 282.75 769.59 285.00 770.13 285.00 C 770.65 285.00 773.42 283.43 776.28 281.50 C 782.73 277.15 785.06 276.95 784.76 280.75 C 784.51 283.79 781.20 288.24 779.82 287.39 C 779.34 287.09 779.07 287.31 779.23 287.88 C 779.63 289.38 764.03 300.00 761.43 300.00 C 760.21 300.00 758.94 299.28 758.60 298.40Z"/></g>
<g fill="#1D7617FF">
<path d="M 554.00 608.00 L 554.00 583.00 L 560.50 583.00 L 567.00 583.00 L 567.00 585.98 L 567.00 588.96 L 571.25 586.04 C 573.78 584.29 577.11 582.99 579.50 582.81 L 583.50 582.50 L 583.79 588.62 L 584.09 594.73 L 579.92 595.40 C 574.34 596.29 572.26 597.52 569.95 601.31 C 568.27 604.07 568.01 606.40 568.00 618.75 L 568.00 633.00 L 561.00 633.00 L 554.00 633.00 L 554.00 608.00Z"/></g>
<g fill="#1D7617FF">
<path d="M 516.00 608.00 L 516.00 583.00 L 522.50 583.00 L 529.00 583.00 L 529.00 586.05 L 529.00 589.10 L 532.27 586.61 C 535.39 584.23 543.89 581.55 544.95 582.62 C 545.23 582.89 545.47 585.63 545.48 588.69 L 545.50 594.25 L 540.75 595.47 C 531.49 597.85 530.01 601.25 530.01 620.25 L 530.00 633.00 L 523.00 633.00 L 516.00 633.00 L 516.00 608.00Z"/></g>
<g fill="#1D7617FF">
<path d="M 815.82 632.65 C 805.48 629.76 799.05 621.46 798.23 609.93 C 797.87 604.91 798.06 603.00 798.94 603.00 C 799.60 603.00 799.97 602.21 799.75 601.25 C 799.31 599.32 801.64 593.91 803.39 592.79 C 804.00 592.39 804.50 591.65 804.50 591.13 C 804.50 590.61 805.71 589.23 807.19 588.06 C 814.56 582.27 825.18 581.29 833.86 585.62 C 836.74 587.05 839.84 589.35 840.74 590.72 C 842.30 593.10 842.26 593.30 839.93 595.08 C 836.94 597.38 835.63 597.46 833.95 595.43 C 829.95 590.61 820.47 589.52 814.99 593.25 C 809.08 597.27 807.50 600.36 807.50 607.90 C 807.50 616.66 810.64 621.93 817.40 624.52 C 823.21 626.73 827.93 625.88 832.61 621.77 C 836.04 618.75 836.27 618.70 838.81 620.24 C 842.30 622.36 842.45 623.16 839.93 626.36 C 835.28 632.28 824.52 635.09 815.82 632.65Z"/></g>
<g fill="#1D7617FF">
<path d="M 592.00 608.00 L 592.00 583.00 L 599.00 583.00 L 606.00 583.00 L 606.00 608.00 L 606.00 633.00 L 599.00 633.00 L 592.00 633.00 L 592.00 608.00Z"/></g>
<g fill="#1D7617FF">
<path d="M 913.00 598.50 L 913.00 564.00 L 916.84 564.00 L 920.69 564.00 L 921.34 578.25 C 921.70 586.09 921.99 601.61 922.00 612.75 L 922.00 633.00 L 917.50 633.00 L 913.00 633.00 L 913.00 598.50Z"/></g>
<g fill="#1D7617FF">
<path d="M 767.64 632.30 C 767.25 631.92 766.98 620.67 767.04 607.30 L 767.13 583.00 L 771.06 583.00 L 775.00 583.00 L 775.00 587.14 L 775.00 591.27 L 777.75 588.50 C 780.92 585.30 785.82 583.00 789.47 583.00 C 791.74 583.00 792.00 583.39 792.00 586.89 C 792.00 590.48 791.75 590.82 788.75 591.39 C 783.81 592.33 779.52 595.38 777.67 599.28 C 776.34 602.09 776.00 605.87 776.00 617.90 L 776.00 633.00 L 772.17 633.00 C 770.06 633.00 768.02 632.69 767.64 632.30Z"/></g>
<g fill="#64927CFF">
<path d="M 896.12 261.32 C 893.54 253.92 883.13 234.12 876.95 224.86 C 872.64 218.40 871.57 216.27 873.51 218.00 C 875.06 219.38 876.01 219.96 875.63 219.30 C 874.66 217.60 877.87 216.15 882.17 216.35 C 885.37 216.50 885.70 216.31 884.87 214.76 C 884.35 213.79 884.18 213.00 884.49 213.00 C 887.34 213.00 912.50 260.83 910.63 262.70 C 910.43 262.90 909.68 261.59 908.95 259.78 C 906.98 254.87 903.00 249.18 903.00 251.27 C 903.00 252.22 902.55 253.00 902.00 253.00 C 901.45 253.00 901.00 252.55 901.00 252.00 C 901.00 251.45 900.52 251.00 899.94 251.00 C 899.36 251.00 899.16 251.45 899.50 252.00 C 899.84 252.55 899.22 253.00 898.12 253.00 C 895.21 253.00 894.93 254.11 896.59 258.95 C 897.41 261.32 897.94 263.68 897.77 264.20 C 897.59 264.72 896.85 263.42 896.12 261.32Z"/></g>
<g fill="#1D7617FF">
<path d="M 990.94 631.25 C 990.90 630.29 990.86 619.15 990.85 606.50 L 990.82 583.50 L 994.66 583.50 C 998.40 583.50 998.51 583.60 998.82 587.38 C 999.13 591.20 999.16 591.22 1000.70 589.02 C 1002.58 586.33 1009.44 583.05 1013.25 583.02 C 1015.79 583.00 1016.00 583.31 1016.00 586.91 C 1016.00 590.69 1015.87 590.85 1012.03 591.50 C 1006.90 592.36 1003.21 595.32 1000.90 600.42 C 999.37 603.77 999.04 607.05 999.02 618.75 L 999.00 633.00 L 995.00 633.00 C 991.88 633.00 990.99 632.61 990.94 631.25Z"/></g>
<g fill="#368BA0FF">
<path d="M 803.15 296.54 C 801.32 295.24 799.20 293.30 798.45 292.23 C 797.26 290.54 797.34 290.01 799.08 288.14 C 800.18 286.96 801.51 286.00 802.04 286.00 C 802.57 286.00 803.00 285.52 803.00 284.94 C 803.00 284.36 802.60 284.13 802.11 284.43 C 801.62 284.74 801.04 283.44 800.82 281.56 C 800.60 279.68 800.77 278.36 801.21 278.63 C 801.64 278.90 802.00 278.18 802.00 277.03 C 802.00 275.88 801.31 274.67 800.47 274.35 C 799.22 273.87 799.17 273.49 800.22 272.19 C 801.21 270.97 801.22 270.79 800.25 271.37 C 799.40 271.88 799.00 271.40 799.00 269.88 C 799.00 268.49 800.94 265.76 804.08 262.74 C 806.87 260.05 808.93 257.26 808.66 256.55 C 808.25 255.49 803.77 254.06 800.26 253.87 C 799.84 253.85 798.90 253.33 798.16 252.72 C 797.06 251.80 797.14 251.37 798.60 250.30 C 801.06 248.51 824.54 248.46 825.68 250.25 C 827.61 253.30 826.40 254.74 816.26 261.46 C 806.04 268.23 803.69 270.59 804.25 273.52 C 804.55 275.10 804.33 275.72 803.61 275.30 C 803.00 274.94 803.24 275.52 804.14 276.58 C 805.93 278.67 810.00 292.51 810.00 296.51 C 810.00 299.70 807.64 299.71 803.15 296.54Z"/></g>
<g fill="#64927CFF">
<path d="M 782.00 387.50 C 782.00 387.11 783.12 385.45 784.50 383.82 C 785.88 382.18 787.00 380.21 787.00 379.42 C 787.00 378.64 787.38 378.00 787.83 378.00 C 788.29 378.00 788.67 376.67 788.67 375.04 C 788.67 373.42 788.29 372.32 787.83 372.60 C 787.38 372.89 787.00 372.64 787.00 372.06 C 787.00 371.48 787.48 371.00 788.07 371.00 C 788.66 371.00 788.44 370.29 787.57 369.43 C 786.71 368.56 786.00 367.13 786.00 366.25 C 786.00 365.19 784.74 365.98 782.33 368.57 C 777.31 373.95 780.04 370.22 788.59 360.00 C 798.67 347.96 808.26 335.16 816.18 323.15 C 819.93 317.46 823.00 313.22 823.00 313.73 C 823.00 314.23 819.20 320.35 814.56 327.32 C 809.92 334.30 806.43 340.01 806.81 340.03 C 807.19 340.05 806.71 340.52 805.75 341.08 C 804.31 341.92 804.12 342.92 804.68 346.80 C 805.05 349.38 805.34 352.85 805.32 354.50 C 805.31 356.15 805.49 356.93 805.73 356.24 C 805.97 355.55 806.53 355.21 806.97 355.48 C 807.41 355.75 811.28 351.48 815.56 345.99 C 822.61 336.95 825.38 333.86 823.39 337.25 C 818.64 345.34 782.00 389.83 782.00 387.50Z"/></g>
<g fill="#1D7617FF">
<path d="M 742.23 608.25 L 742.50 583.50 L 746.75 583.19 L 751.00 582.89 L 751.00 607.94 L 751.00 633.00 L 746.48 633.00 L 741.97 633.00 L 742.23 608.25Z"/></g>
<g fill="#64927CFF">
<path d="M 777.01 353.98 C 777.61 352.87 777.87 351.60 777.60 351.16 C 777.33 350.72 777.71 349.18 778.46 347.75 C 779.48 345.78 779.51 345.25 778.57 345.61 C 777.69 345.95 777.47 345.14 777.79 342.79 C 778.31 339.09 779.79 336.75 781.10 337.56 C 781.58 337.86 781.71 337.41 781.38 336.55 C 781.05 335.70 781.26 335.00 781.84 335.00 C 782.41 335.00 782.71 334.10 782.50 333.00 C 782.29 331.90 782.65 330.99 783.31 330.98 C 784.04 330.98 783.93 330.61 783.03 330.04 C 781.77 329.24 781.80 329.01 783.28 328.45 C 785.11 327.74 785.68 325.00 784.00 325.00 C 783.45 325.00 783.00 323.85 783.00 322.44 C 783.00 320.88 783.42 320.14 784.07 320.54 C 784.77 320.98 785.02 319.89 784.82 317.35 C 784.62 314.93 784.04 313.59 783.25 313.75 C 782.56 313.89 781.95 313.21 781.88 312.25 C 781.82 311.29 781.66 310.05 781.54 309.50 C 781.41 308.95 781.24 307.71 781.15 306.75 C 780.87 303.49 779.32 304.98 779.19 308.64 C 778.94 315.09 778.00 313.55 778.00 306.71 C 778.00 301.18 778.36 299.74 780.19 298.04 C 783.15 295.28 787.14 295.45 789.97 298.47 C 792.14 300.78 792.25 301.46 791.62 309.05 C 790.41 323.47 787.23 335.34 780.83 349.21 C 779.11 352.94 777.30 356.00 776.82 356.00 C 776.33 356.00 776.42 355.09 777.01 353.98Z"/></g>
<g fill="#64927CFF">
<path d="M 821.50 220.44 C 812.71 212.78 797.32 207.12 784.54 206.85 C 780.67 206.77 778.75 206.51 780.27 206.28 C 781.79 206.05 782.77 205.44 782.46 204.93 C 782.14 204.42 782.32 204.00 782.85 204.00 C 784.00 204.00 783.23 198.01 781.87 196.35 C 781.35 195.72 779.33 195.20 777.39 195.20 C 771.62 195.20 772.21 194.02 778.08 193.81 C 793.12 193.29 803.56 195.22 815.25 200.69 C 819.51 202.68 823.00 204.62 823.00 204.99 C 823.00 205.36 820.05 204.18 816.45 202.37 C 809.14 198.69 803.35 197.25 801.86 198.74 C 801.22 199.38 801.56 200.94 802.87 203.27 C 803.96 205.21 804.59 207.08 804.26 207.40 C 803.93 207.73 804.16 208.00 804.76 208.00 C 805.36 208.00 806.46 208.56 807.19 209.25 C 807.92 209.94 811.71 212.64 815.61 215.25 C 819.50 217.86 823.51 220.90 824.50 222.00 C 827.20 224.98 826.00 224.36 821.50 220.44Z"/></g>
<g fill="#B7945AFF">
<path d="M 852.90 195.36 C 847.18 189.60 839.24 182.38 835.25 179.31 C 831.26 176.24 828.00 173.51 828.00 173.24 C 828.00 172.75 830.24 174.37 842.70 183.87 C 849.07 188.73 855.13 191.64 853.55 189.08 C 853.24 188.58 854.33 187.87 855.98 187.50 C 858.60 186.93 858.85 186.59 857.94 184.88 C 857.36 183.80 853.87 179.68 850.19 175.72 L 843.50 168.53 L 849.86 173.96 C 858.71 181.51 871.56 195.80 871.18 197.66 C 870.99 198.60 871.31 198.93 872.00 198.50 C 872.79 198.01 873.04 198.84 872.82 201.15 C 872.56 203.91 872.06 204.53 870.00 204.68 C 868.62 204.77 866.55 205.07 865.40 205.34 C 863.76 205.72 861.01 203.53 852.90 195.36Z"/></g>
<g fill="#64927CFF">
<path d="M 807.00 300.20 C 806.17 299.91 800.86 296.57 795.18 292.77 C 785.24 286.12 784.77 285.92 782.48 287.42 C 780.76 288.55 779.91 288.66 779.40 287.83 C 779.00 287.19 779.13 286.96 779.69 287.31 C 782.43 289.00 786.39 279.56 783.70 277.75 C 783.04 277.30 783.85 277.25 785.50 277.63 C 787.15 278.02 790.87 279.90 793.77 281.82 C 796.66 283.73 799.23 285.10 799.47 284.86 C 799.72 284.62 799.28 281.74 798.49 278.46 C 796.30 269.28 796.51 268.14 801.25 263.76 C 807.55 257.93 809.98 257.05 804.07 262.74 C 800.94 265.76 799.00 268.49 799.00 269.88 C 799.00 271.40 799.40 271.88 800.25 271.37 C 801.22 270.79 801.21 270.97 800.22 272.19 C 799.17 273.49 799.22 273.87 800.47 274.35 C 801.31 274.67 802.00 275.88 802.00 277.03 C 802.00 278.18 801.64 278.90 801.21 278.63 C 800.77 278.36 800.60 279.68 800.82 281.56 C 801.04 283.44 801.62 284.74 802.11 284.43 C 802.60 284.13 803.00 284.36 803.00 284.94 C 803.00 285.52 802.57 286.00 802.04 286.00 C 801.51 286.00 800.18 286.96 799.08 288.14 C 797.34 290.01 797.26 290.53 798.46 292.24 C 800.24 294.79 806.46 299.00 808.45 299.00 C 809.44 299.00 810.00 298.09 810.00 296.51 C 810.00 292.98 806.03 278.79 804.54 277.00 C 802.08 274.05 804.50 269.64 811.17 264.90 C 818.53 259.67 820.00 258.75 820.00 259.36 C 820.00 259.61 816.85 262.15 813.00 265.00 C 808.06 268.66 806.01 270.82 806.02 272.34 C 806.03 273.53 807.29 279.45 808.82 285.50 C 810.34 291.55 811.43 297.25 811.24 298.16 C 810.83 300.10 809.13 300.92 807.00 300.20Z"/></g>
<g fill="#64927CFF">
<path d="M 795.01 254.69 C 791.94 253.64 791.11 252.55 788.06 245.50 C 785.31 239.14 784.57 236.07 784.45 230.50 C 784.33 224.59 784.04 223.52 782.62 223.64 C 781.26 223.76 781.16 223.51 782.13 222.35 C 782.79 221.55 784.20 221.04 785.27 221.20 C 786.74 221.43 788.37 224.47 792.02 233.83 C 794.67 240.62 797.09 246.42 797.40 246.73 C 797.71 247.05 803.04 247.62 809.23 248.00 L 820.50 248.69 L 810.44 248.85 C 803.80 248.95 799.76 249.46 798.54 250.35 C 797.02 251.46 796.94 251.85 798.10 252.57 C 798.87 253.05 800.17 253.56 801.00 253.71 C 801.83 253.85 803.85 254.39 805.50 254.90 C 808.25 255.75 808.08 255.83 803.50 255.86 C 800.75 255.87 796.93 255.35 795.01 254.69Z"/></g>
<g fill="#66A14BFF">
<path d="M 771.25 388.34 C 769.46 386.33 768.00 384.36 768.00 383.95 C 768.00 383.55 772.05 379.12 777.00 374.11 C 781.95 369.10 786.00 365.64 786.00 366.43 C 786.00 367.21 786.71 368.56 787.57 369.43 C 788.44 370.29 788.66 371.00 788.07 371.00 C 787.48 371.00 787.00 371.48 787.00 372.06 C 787.00 372.64 787.38 372.89 787.83 372.60 C 788.29 372.32 788.67 373.42 788.67 375.04 C 788.67 376.67 788.29 378.00 787.83 378.00 C 787.38 378.00 787.00 378.64 787.00 379.42 C 787.00 380.21 785.88 382.18 784.50 383.82 C 783.12 385.45 782.00 387.31 782.00 387.95 C 782.00 388.59 781.55 388.84 781.00 388.50 C 780.45 388.16 780.00 388.56 780.00 389.38 C 780.00 390.21 779.48 391.20 778.85 391.60 C 778.07 392.07 777.96 391.85 778.49 390.90 C 779.14 389.77 779.04 389.74 777.95 390.75 C 775.87 392.68 774.76 392.28 771.25 388.34Z"/></g>
</svg>
